<?xml version="1.0"?>
<svg width="420.67" height="343.32" xmlns="http://www.w3.org/2000/svg" xmlns:svg="http://www.w3.org/2000/svg" version="1.1">
 <title id="title32935">Rock-Paper-Scissors</title>
 <metadata id="metadata33">image/svg+xmlOpenclipart</metadata>
 <g class="layer" display="inline">
  <title>Layer 1</title>
  <g id="layer1" transform="translate(122 89) matrix(1 0 0 1 -169.67 -397.84)">
   <g id="imagebot_10" transform="translate(-8 11) matrix(-0.46644 1.1393 -1.1393 -0.46644 1440.2 856.09)">
    <path d="m89.47,1065.9c3.73,6.1 -0.48,10 -6.16,12.9c-8.03,4.1 -27.9,2.1 -34.7,-2c-6.24,-3.8 -9.01,-9.3 -6.04,-14.2" fill="#ffffff" id="imagebot_18" stroke="#000000" stroke-linecap="round" stroke-linejoin="round" stroke-width="4.06"/>
    <path d="m21.35,1021c-0.85,15.7 13.9,40.3 31.37,46.1c9.02,2.9 29.32,3.8 36.49,-1.5c12.28,-9 18.48,-20.7 21.29,-35.1c0.99,-5.1 1.24,-10.9 0.95,-15.7c-1.29,-17.56 -14.83,-27.89 -20.61,-31.93c-0.18,-11.45 0.98,-25.25 2.82,-38.22c2.75,-19.4 -24.34,-14.51 -26.73,3.69c-1.12,8.52 -3.06,15.51 -5.11,34.59c-3.15,-10.28 -8.43,-25.04 -10.21,-35.24c-2.92,-16.83 -27.05,-6.74 -23.04,13.76c2.73,13.96 7.07,24.24 9.73,37.54c-2.8,2.21 -16.05,5.71 -16.95,22.01z" fill="#ffffff" id="imagebot_17" stroke="#000000" stroke-linecap="round" stroke-linejoin="round" stroke-width="4.06"/>
    <path d="m59.58,982.54c3.03,12.66 7.49,18.46 9.14,21.46c-2.12,-7.92 -2.86,-9.87 -4.49,-18.45c-0.27,-1.46 -0.36,-3.2 -0.12,-5.33l-4.53,2.32z" fill="#000000" id="imagebot_16" stroke-width="5.78"/>
    <path d="m88.81,982.97c0.13,7.64 2.12,16.81 4.98,22.53c-0.31,-8.27 -0.56,-14.8 -1.04,-22.68c-0.02,0 -1.96,0.15 -3.94,0.15z" fill="#000000" id="imagebot_15" stroke-width="5.78"/>
    <path d="m79.64,1058.3c4.04,-9.7 3.98,-12.5 5.2,-17.4" fill="none" id="imagebot_14" stroke="#000000" stroke-linecap="round" stroke-linejoin="round" stroke-width="4.06"/>
    <path d="m70.26,1059c1.69,-11.5 1.43,-17.2 1.86,-24.9" fill="none" id="imagebot_13" stroke="#000000" stroke-linecap="round" stroke-linejoin="round" stroke-width="4.06"/>
    <path d="m59.04,1059.5c0.1,-8 -0.6,-11.8 -1.05,-16.8" fill="none" id="imagebot_12" stroke="#000000" stroke-linecap="round" stroke-linejoin="round" stroke-width="4.06"/>
    <path d="m36.02,998.02c3.9,16.78 -1.2,23.38 -4.58,31.88c5.14,-8.8 12.14,-11.8 8.84,-31.41l-4.26,-0.47z" fill="#000000" id="imagebot_11" stroke-width="5.78"/>
   </g>
  </g>
 </g>
</svg>