<?xml version="1.0"?>
<svg width="420.67" height="343.32" xmlns="http://www.w3.org/2000/svg" xmlns:svg="http://www.w3.org/2000/svg" version="1.1">
 <title id="title32935">Rock-Paper-Scissors</title>
 <metadata id="metadata33">image/svg+xmlOpenclipart</metadata>
 <g class="layer" display="inline">
  <title>Layer 1</title>
  <g id="layer1" transform="translate(-78 -179) matrix(1 0 0 1 -47.67 -308.84)">
   <g id="g32290" transform="translate(-181 143) matrix(0.19511 1.2155 1.2155 -0.19511 -740.71 627.61)">
    <path d="m89.47,1065.9c3.73,6.1 -0.48,10 -6.16,12.9c-8.03,4.1 -27.9,2.1 -34.7,-2c-6.24,-3.8 -9.01,-9.3 -6.04,-14.2" fill="#ffffff" id="path32292" stroke="#000000" stroke-linecap="round" stroke-linejoin="round" stroke-width="4.06"/>
    <path d="m21.35,1021c-0.85,15.7 13.9,40.3 31.37,46.1c9.02,2.9 29.32,3.8 36.49,-1.5c12.28,-9 18.48,-20.7 21.29,-35.1c0.99,-5.1 1.24,-10.9 0.95,-15.7c-1.02,-19.62 -7.22,-34.21 -20.61,-31.93c-4.08,-16.07 -28.9,-12.22 -29.02,0.06c-12.67,-14.24 -31.09,-0.96 -23.52,16.06c-2.8,2.21 -16.05,5.71 -16.95,22.01z" fill="#ffffff" id="path32294" stroke="#000000" stroke-linecap="round" stroke-linejoin="round" stroke-width="4.06"/>
    <path d="m63.9,983.51c3.93,12.41 2.36,17.58 2.48,21c-2.27,-7.88 -2.63,-9.93 -5.67,-18.12c-0.51,-1.39 -1.19,-2.8 -2.71,-4.36l6.11,-0.9c0.05,-0.3 -0.35,1.46 -0.21,2.38z" fill="#000000" id="path32296" stroke-width="5.78"/>
    <path d="m92.47,981.32c1.51,7.49 2.52,16.87 0.95,23.07c-0.77,-4.13 -3.48,-14.68 -4.51,-20.92c-0.02,0 0.01,0.01 3.56,-2.15z" fill="#000000" id="path32298" stroke-width="5.78"/>
    <path d="m79.64,1058.3c4.04,-9.7 3.98,-12.5 5.2,-17.4" fill="none" id="path32300" stroke="#000000" stroke-linecap="round" stroke-linejoin="round" stroke-width="4.06"/>
    <path d="m70.26,1059c1.69,-11.5 1.43,-17.2 1.86,-24.9" fill="none" id="path32302" stroke="#000000" stroke-linecap="round" stroke-linejoin="round" stroke-width="4.06"/>
    <path d="m59.04,1059.5c0.1,-8 -0.6,-11.8 -1.05,-16.8" fill="none" id="path32304" stroke="#000000" stroke-linecap="round" stroke-linejoin="round" stroke-width="4.06"/>
    <path d="m36.02,998.02c3.9,16.78 -1.2,23.38 -4.58,31.88c5.14,-8.8 12.14,-11.8 8.84,-31.41l-4.26,-0.47z" fill="#000000" id="path32306" stroke-width="5.78"/>
   </g>
  </g>
 </g>
</svg>