<?xml version="1.0"?>
<svg width="420.67" height="343.32" xmlns="http://www.w3.org/2000/svg" xmlns:svg="http://www.w3.org/2000/svg" version="1.1">
 <title id="title32935">Rock-Paper-Scissors</title>
 <metadata id="metadata33">image/svg+xmlOpenclipart</metadata>
 <g class="layer" display="inline">
  <title>Layer 1</title>
  <g id="layer1" transform="translate(-78 -179) matrix(1 0 0 1 -47.67 -308.84)">
   <g id="g5439" transform="matrix(0.62977 0.77678 -0.77678 0.62977 1980.2 -124.31)">
    <g id="g3915-6-1-6-3-8-9-4" transform="matrix(1.2311,0,0,1.2311,-513.75,545.62)">
     <path d="m89.47,1065.9c3.73,6.13 -0.48,10.05 -6.16,12.95c-8.03,4.1 -27.9,2.1 -34.7,-2.02c-6.24,-3.77 -9.01,-9.35 -6.04,-14.18" fill="#ffffff" id="path3894-6-1-0-5-5-2-9" stroke="#000000" stroke-linecap="round" stroke-linejoin="round" stroke-width="4.06"/>
     <path d="m-3.6,1025.6c-4.05,8.02 9.81,12.99 25.01,15.8c5.91,1.09 17.51,20.95 31.31,25.69c8.97,3.09 29.32,3.85 36.49,-1.43c12.27,-9.03 18.48,-20.68 21.29,-35.08c0.99,-5.11 1.24,-10.94 0.95,-15.71c-0.95,-15.65 12.96,-53.66 11.89,-57.67c-2.97,-11.15 -15.88,-4.62 -18.57,2.55c-1.3,3.47 -13.85,27.81 -13.93,23.15c-0.18,-11.45 0.98,-25.25 2.82,-38.21c2.75,-19.41 -24.34,-14.52 -26.73,3.68c-1.12,8.52 -3.06,15.51 -5.11,34.59c-3.15,-10.28 -8.43,-25.04 -10.21,-35.24c-2.92,-16.83 -27.05,-6.74 -23.04,13.76c2.73,13.96 10.4,38.57 9.2,62.82c-9.43,-7.85 -29.16,-22.88 -41.37,1.3z" fill="#ffffff" id="path3112-2-8-6-8-2-9-8" stroke="#000000" stroke-linecap="round" stroke-linejoin="round" stroke-width="4.06"/>
     <path d="m59.58,982.54c3.03,12.66 7.49,18.46 9.15,21.42c-2.12,-7.89 -2.87,-9.83 -4.5,-18.42c-0.27,-1.45 -0.36,-3.19 -0.11,-5.32l-4.54,2.32z" fill="#000000" id="path3882-6-1-33-9-9-7-9"/>
     <path d="m88.81,982.97c0.13,7.63 2.12,16.81 4.98,22.53c-0.13,-4.16 -0.42,-11.32 -0.75,-17.65c-0.08,-1.71 0.26,-3.27 1.67,-5.27c-1.93,0.54 -3.92,0.39 -5.89,0.39l-0.01,0z" fill="#000000" id="path3884-6-1-2-9-6-6-0"/>
     <path d="m79.64,1058.3c4.04,-9.68 3.98,-12.46 5.2,-17.41" fill="none" id="path3886-8-5-4-3-7-0-8" stroke="#000000" stroke-linecap="round" stroke-linejoin="round" stroke-width="4.06"/>
     <path d="m70.26,1059c1.69,-11.47 1.42,-17.15 1.86,-24.9" fill="none" id="path3888-4-4-9-8-4-7-4" stroke="#000000" stroke-linecap="round" stroke-linejoin="round" stroke-width="4.06"/>
     <path d="m59.04,1059.5c0.1,-7.98 -0.6,-11.75 -1.05,-16.83" fill="none" id="path3890-1-8-5-1-8-9-7" stroke="#000000" stroke-linecap="round" stroke-linejoin="round" stroke-width="4.06"/>
    </g>
   </g>
  </g>
 </g>
</svg>